<svg width="536" height="687" viewBox="0 0 536 687" fill="none" xmlns="http://www.w3.org/2000/svg">
<path d="M226.912 686C226.912 686 91 690.628 78 675.5C65 660.372 130.504 597.658 159.752 597.658C189 597.658 236.5 597.658 236.5 597.658C286.57 597.658 328.296 587.226 361.676 566.364C395.056 545.18 401.837 543.779 418.527 505.905C435.538 467.71 444.044 423.096 444.044 372.063V329.214C444.044 289.094 439.229 253.467 429.601 222.334C419.972 190.879 405.849 164.4 387.233 142.895C368.618 121.07 345.829 104.54 318.868 93.3062C292.228 82.0725 261.576 76.4557 226.912 76.4557H68.998V0.387292H226.912C272.81 0.387292 314.696 8.09042 352.569 23.4967C390.443 38.582 423.021 60.568 450.303 89.4547C477.906 118.02 499.089 152.685 513.854 193.447C528.618 233.888 536 279.465 536 330.177V372.063C536 422.775 528.618 468.513 513.854 509.275C499.089 549.716 477.745 584.22 449.821 612.786C422.218 641.351 397.504 647.966 358.347 663.372C319.51 678.457 275.699 686 226.912 686ZM127.5 0.387207C85.2336 -4.89556 90.0238 519.594 127.5 554.372C164.976 589.149 114.724 584.872 45.7236 612.786C-23.2764 640.7 0.55661 0.387292 28.5566 0.387292C56.5566 0.387292 127.5 0.387207 127.5 0.387207Z" fill="#0A8A74"/>
</svg>
