<svg width="121" height="38" viewBox="0 0 121 38" fill="none" xmlns="http://www.w3.org/2000/svg">
<path d="M11.7769 38H3.72852L3.78027 32.8501H11.7769C14.106 32.8501 16.0555 32.3411 17.6255 31.3232C19.2127 30.3053 20.4032 28.8475 21.1968 26.9497C22.0076 25.0519 22.4131 22.7918 22.4131 20.1694V18.125C22.4131 16.0892 22.1802 14.2863 21.7144 12.7163C21.2658 11.1463 20.5929 9.8265 19.6958 8.75684C18.8159 7.68717 17.729 6.8763 16.4351 6.32422C15.1584 5.77214 13.6833 5.49609 12.0098 5.49609H3.57324V0.320312H12.0098C14.5114 0.320312 16.7974 0.743001 18.8677 1.58838C20.938 2.4165 22.7236 3.61556 24.2246 5.18555C25.7428 6.75553 26.9074 8.63607 27.7183 10.8271C28.5291 13.0182 28.9346 15.4681 28.9346 18.1768V20.1694C28.9346 22.8781 28.5291 25.328 27.7183 27.519C26.9074 29.7101 25.7428 31.5907 24.2246 33.1606C22.7064 34.7134 20.8949 35.9124 18.79 36.7578C16.7025 37.5859 14.3647 38 11.7769 38ZM7.32568 0.320312V38H0.830078V0.320312H7.32568ZM45.124 22.5947L39.8139 38H36.6035L43.2929 20.2266H45.3437L45.124 22.5947ZM49.5674 38L44.2451 22.5947L44.0132 20.2266H46.0762L52.79 38H49.5674ZM49.311 31.4082V33.8374H39.643V31.4082H49.311ZM60.7773 34.0083L64.3174 20.2266H66.1728L65.9653 23.7788L62.1811 38H60.2524L60.7773 34.0083ZM58.1284 20.2266L60.9971 33.8984L61.2534 38H59.2026L55.0888 20.2266H58.1284ZM70.1889 33.8618L73.021 20.2266H76.0727L71.959 38H69.9082L70.1889 33.8618ZM66.893 20.2266L70.3965 34.0449L70.9092 38H68.9804L65.2573 23.7788L65.062 20.2266H66.893ZM86.9775 22.5947L81.6675 38H78.457L85.1465 20.2266H87.1972L86.9775 22.5947ZM91.4209 38L86.0986 22.5947L85.8667 20.2266H87.9297L94.6435 38H91.4209ZM91.1645 31.4082V33.8374H81.4966V31.4082H91.1645ZM105.805 22.5947L100.495 38H97.2842L103.974 20.2266H106.024L105.805 22.5947ZM110.248 38L104.926 22.5947L104.694 20.2266H106.757L113.471 38H110.248ZM109.992 31.4082V33.8374H100.324V31.4082H109.992ZM120.982 20.2266V38H117.918V20.2266H120.982Z" fill="#00856F"/>
</svg>
