<svg width="819" height="115" viewBox="0 0 819 115" fill="none" xmlns="http://www.w3.org/2000/svg">
<g filter="url(#filter0_d_9_1703)">
<rect x="9" y="5" width="801" height="97" fill="white"/>
</g>
<path d="M788 53.5L737 28L753.707 53.5L737 79L788 53.5Z" fill="#00856F"/>
<path d="M37.875 61.25V69V61.25ZM39.8125 38V45.75V38ZM41.75 65.125H34H41.75ZM43.6875 41.875H35.9375H43.6875ZM53.375 38L56.771 46.611C57.1351 47.5341 57.3172 47.9957 57.596 48.3849C57.8431 48.7299 58.1451 49.032 58.4902 49.279C58.8792 49.5578 59.3409 49.7399 60.264 50.104L68.875 53.5L60.264 56.896C59.3409 57.2601 58.8792 57.4422 58.4902 57.721C58.1451 57.9681 57.8431 58.2701 57.596 58.6152C57.3172 59.0042 57.1351 59.466 56.771 60.389L53.375 69L49.979 60.389C49.6149 59.466 49.4328 59.0042 49.154 58.6152C48.9069 58.2701 48.6049 57.9681 48.2598 57.721C47.8708 57.4422 47.4091 57.2601 46.486 56.896L37.875 53.5L46.486 50.104C47.4091 49.7399 47.8708 49.5578 48.2598 49.279C48.6049 49.032 48.9069 48.7299 49.154 48.3849C49.4328 47.9957 49.6149 47.5341 49.979 46.611L53.375 38Z" fill="#00856F"/>
<path d="M37.875 61.25V69M39.8125 38V45.75M41.75 65.125H34M43.6875 41.875H35.9375M53.375 38L56.771 46.611C57.1351 47.5341 57.3172 47.9957 57.596 48.3849C57.8431 48.7299 58.1451 49.032 58.4902 49.279C58.8792 49.5578 59.3409 49.7399 60.264 50.104L68.875 53.5L60.264 56.896C59.3409 57.2601 58.8792 57.4422 58.4902 57.721C58.1451 57.9681 57.8431 58.2701 57.596 58.6152C57.3172 59.0042 57.1351 59.466 56.771 60.389L53.375 69L49.979 60.389C49.6149 59.466 49.4328 59.0042 49.154 58.6152C48.9069 58.2701 48.6049 57.9681 48.2598 57.721C47.8708 57.4422 47.4091 57.2601 46.486 56.896L37.875 53.5L46.486 50.104C47.4091 49.7399 47.8708 49.5578 48.2598 49.279C48.6049 49.032 48.9069 48.7299 49.154 48.3849C49.4328 47.9957 49.6149 47.5341 49.979 46.611L53.375 38Z" stroke="#00856F" stroke-width="3.875" stroke-linecap="round" stroke-linejoin="round"/>
<path d="M115.783 53.3915V59.7202C115.569 60.0369 115.229 60.3931 114.762 60.7889C114.295 61.1768 113.65 61.5171 112.826 61.81C112.011 62.095 110.958 62.2375 109.668 62.2375C108.615 62.2375 107.645 62.0554 106.759 61.6913C105.88 61.3192 105.116 60.781 104.467 60.0764C103.826 59.364 103.327 58.5012 102.971 57.488C102.623 56.4668 102.449 55.3111 102.449 54.0208V52.6791C102.449 51.3888 102.599 50.237 102.9 49.2238C103.209 48.2106 103.66 47.3517 104.253 46.6472C104.847 45.9348 105.575 45.3965 106.438 45.0324C107.301 44.6603 108.291 44.4743 109.407 44.4743C110.729 44.4743 111.833 44.7038 112.719 45.163C113.614 45.6142 114.311 46.2395 114.809 47.039C115.316 47.8385 115.64 48.7488 115.783 49.77H113.491C113.388 49.1446 113.183 48.5747 112.874 48.0602C112.573 47.5456 112.142 47.134 111.58 46.8253C111.018 46.5087 110.293 46.3503 109.407 46.3503C108.607 46.3503 107.915 46.4968 107.329 46.7897C106.743 47.0826 106.26 47.5021 105.88 48.0483C105.5 48.5945 105.215 49.2555 105.025 50.0312C104.843 50.807 104.752 51.6817 104.752 52.6553V54.0208C104.752 55.0182 104.867 55.9087 105.096 56.6924C105.334 57.4761 105.67 58.145 106.106 58.6991C106.541 59.2453 107.06 59.6609 107.661 59.9458C108.271 60.2308 108.944 60.3733 109.68 60.3733C110.495 60.3733 111.156 60.306 111.663 60.1714C112.169 60.029 112.565 59.8627 112.85 59.6727C113.135 59.4748 113.353 59.2888 113.503 59.1147V55.2438H109.502V53.3915H115.783ZM124.581 62.2375C123.687 62.2375 122.875 62.0871 122.147 61.7863C121.427 61.4776 120.805 61.0461 120.283 60.492C119.769 59.9379 119.373 59.2809 119.096 58.521C118.819 57.7611 118.68 56.9299 118.68 56.0275V55.5288C118.68 54.4839 118.834 53.5538 119.143 52.7384C119.452 51.9152 119.871 51.2186 120.402 50.6487C120.932 50.0787 121.534 49.6473 122.207 49.3544C122.879 49.0615 123.576 48.9151 124.296 48.9151C125.215 48.9151 126.006 49.0734 126.671 49.39C127.344 49.7067 127.894 50.15 128.322 50.7199C128.749 51.2819 129.066 51.9469 129.271 52.7147C129.477 53.4746 129.58 54.3058 129.58 55.2082V56.1937H119.986V54.4008H127.384V54.2345C127.352 53.6646 127.233 53.1105 127.027 52.5722C126.829 52.0339 126.513 51.5906 126.077 51.2423C125.642 50.894 125.048 50.7199 124.296 50.7199C123.798 50.7199 123.339 50.8268 122.919 51.0405C122.499 51.2463 122.139 51.555 121.839 51.9666C121.538 52.3783 121.304 52.8809 121.138 53.4746C120.972 54.0683 120.889 54.753 120.889 55.5288V56.0275C120.889 56.637 120.972 57.2109 121.138 57.7492C121.312 58.2795 121.561 58.7466 121.886 59.1503C122.218 59.554 122.618 59.8706 123.085 60.1002C123.56 60.3298 124.098 60.4445 124.7 60.4445C125.476 60.4445 126.133 60.2862 126.671 59.9696C127.209 59.6529 127.68 59.2294 128.084 58.6991L129.414 59.7559C129.137 60.1754 128.785 60.5751 128.357 60.9551C127.93 61.3351 127.403 61.6438 126.778 61.8813C126.161 62.1187 125.428 62.2375 124.581 62.2375ZM134.342 51.8954V62H132.145V49.1526H134.223L134.342 51.8954ZM133.819 55.0895L132.905 55.0538C132.913 54.1752 133.043 53.3638 133.297 52.6197C133.55 51.8677 133.906 51.2146 134.365 50.6605C134.824 50.1064 135.371 49.679 136.004 49.3782C136.645 49.0694 137.354 48.9151 138.129 48.9151C138.763 48.9151 139.333 49.0022 139.839 49.1763C140.346 49.3425 140.777 49.6117 141.133 49.9837C141.498 50.3558 141.775 50.8386 141.965 51.4323C142.155 52.0181 142.25 52.7345 142.25 53.5815V62H140.041V53.5577C140.041 52.8849 139.942 52.3466 139.744 51.9429C139.546 51.5313 139.257 51.2344 138.877 51.0524C138.497 50.8624 138.03 50.7674 137.476 50.7674C136.93 50.7674 136.431 50.8822 135.98 51.1117C135.537 51.3413 135.153 51.6579 134.828 52.0616C134.512 52.4653 134.262 52.9284 134.08 53.4509C133.906 53.9654 133.819 54.5116 133.819 55.0895ZM150.917 62.2375C150.023 62.2375 149.212 62.0871 148.483 61.7863C147.763 61.4776 147.142 61.0461 146.619 60.492C146.105 59.9379 145.709 59.2809 145.432 58.521C145.155 57.7611 145.016 56.9299 145.016 56.0275V55.5288C145.016 54.4839 145.171 53.5538 145.479 52.7384C145.788 51.9152 146.207 51.2186 146.738 50.6487C147.268 50.0787 147.87 49.6473 148.543 49.3544C149.216 49.0615 149.912 48.9151 150.632 48.9151C151.551 48.9151 152.342 49.0734 153.007 49.39C153.68 49.7067 154.23 50.15 154.658 50.7199C155.085 51.2819 155.402 51.9469 155.608 52.7147C155.813 53.4746 155.916 54.3058 155.916 55.2082V56.1937H146.322V54.4008H153.72V54.2345C153.688 53.6646 153.569 53.1105 153.363 52.5722C153.166 52.0339 152.849 51.5906 152.414 51.2423C151.978 50.894 151.384 50.7199 150.632 50.7199C150.134 50.7199 149.675 50.8268 149.255 51.0405C148.836 51.2463 148.475 51.555 148.175 51.9666C147.874 52.3783 147.64 52.8809 147.474 53.4746C147.308 54.0683 147.225 54.753 147.225 55.5288V56.0275C147.225 56.637 147.308 57.2109 147.474 57.7492C147.648 58.2795 147.898 58.7466 148.222 59.1503C148.555 59.554 148.954 59.8706 149.421 60.1002C149.896 60.3298 150.435 60.4445 151.036 60.4445C151.812 60.4445 152.469 60.2862 153.007 59.9696C153.545 59.6529 154.016 59.2294 154.42 58.6991L155.75 59.7559C155.473 60.1754 155.121 60.5751 154.693 60.9551C154.266 61.3351 153.739 61.6438 153.114 61.8813C152.497 62.1187 151.764 62.2375 150.917 62.2375ZM160.678 51.1711V62H158.481V49.1526H160.618L160.678 51.1711ZM164.691 49.0813L164.679 51.1236C164.497 51.084 164.323 51.0603 164.157 51.0524C163.998 51.0365 163.816 51.0286 163.611 51.0286C163.104 51.0286 162.657 51.1078 162.269 51.2661C161.881 51.4244 161.552 51.6461 161.283 51.931C161.014 52.216 160.8 52.5564 160.642 52.9522C160.492 53.34 160.393 53.7675 160.345 54.2345L159.728 54.5908C159.728 53.815 159.803 53.0867 159.953 52.406C160.112 51.7252 160.353 51.1236 160.678 50.6012C161.002 50.0708 161.414 49.6592 161.913 49.3663C162.419 49.0655 163.021 48.9151 163.717 48.9151C163.876 48.9151 164.058 48.9349 164.264 48.9745C164.469 49.0061 164.612 49.0417 164.691 49.0813ZM173.822 59.8033V53.1896C173.822 52.683 173.719 52.2437 173.513 51.8717C173.315 51.4917 173.015 51.1988 172.611 50.993C172.207 50.7872 171.708 50.6843 171.115 50.6843C170.561 50.6843 170.074 50.7793 169.654 50.9692C169.243 51.1592 168.918 51.4086 168.681 51.7173C168.451 52.026 168.336 52.3585 168.336 52.7147H166.14C166.14 52.2556 166.258 51.8004 166.496 51.3492C166.733 50.898 167.074 50.4903 167.517 50.1262C167.968 49.7542 168.506 49.4613 169.132 49.2475C169.765 49.0259 170.47 48.9151 171.245 48.9151C172.179 48.9151 173.003 49.0734 173.715 49.39C174.435 49.7067 174.997 50.1856 175.401 50.8268C175.813 51.46 176.019 52.2556 176.019 53.2134V59.1978C176.019 59.6252 176.054 60.0804 176.125 60.5633C176.205 61.0461 176.319 61.4617 176.47 61.81V62H174.178C174.067 61.7467 173.98 61.4103 173.917 60.9907C173.854 60.5633 173.822 60.1675 173.822 59.8033ZM174.202 54.2108L174.226 55.7544H172.005C171.38 55.7544 170.822 55.8058 170.331 55.9087C169.84 56.0037 169.429 56.1502 169.096 56.3481C168.764 56.546 168.51 56.7953 168.336 57.0961C168.162 57.389 168.075 57.7334 168.075 58.1291C168.075 58.5329 168.166 58.9009 168.348 59.2334C168.53 59.5659 168.803 59.8311 169.167 60.029C169.539 60.2189 169.995 60.3139 170.533 60.3139C171.206 60.3139 171.799 60.1714 172.314 59.8865C172.829 59.6015 173.236 59.2532 173.537 58.8416C173.846 58.4299 174.012 58.0302 174.036 57.6423L174.974 58.6991C174.918 59.0316 174.768 59.3996 174.523 59.8033C174.277 60.2071 173.949 60.5949 173.537 60.967C173.133 61.3311 172.65 61.6359 172.088 61.8813C171.534 62.1187 170.909 62.2375 170.212 62.2375C169.342 62.2375 168.578 62.0673 167.921 61.7269C167.272 61.3865 166.765 60.9314 166.401 60.3614C166.045 59.7836 165.867 59.1384 165.867 58.426C165.867 57.7373 166.001 57.1317 166.27 56.6093C166.539 56.0789 166.927 55.6396 167.434 55.2913C167.94 54.9351 168.55 54.666 169.262 54.4839C169.975 54.3018 170.77 54.2108 171.649 54.2108H174.202ZM184.853 49.1526V50.8386H177.907V49.1526H184.853ZM180.258 46.0297H182.454V58.8178C182.454 59.2532 182.522 59.5817 182.656 59.8033C182.791 60.025 182.965 60.1714 183.179 60.2427C183.392 60.3139 183.622 60.3495 183.867 60.3495C184.049 60.3495 184.239 60.3337 184.437 60.302C184.643 60.2625 184.797 60.2308 184.9 60.2071L184.912 62C184.738 62.0554 184.508 62.1069 184.223 62.1544C183.946 62.2098 183.61 62.2375 183.214 62.2375C182.676 62.2375 182.181 62.1306 181.73 61.9169C181.279 61.7032 180.919 61.3469 180.649 60.8482C180.388 60.3416 180.258 59.6609 180.258 58.8059V46.0297ZM192.761 62.2375C191.866 62.2375 191.055 62.0871 190.327 61.7863C189.606 61.4776 188.985 61.0461 188.462 60.492C187.948 59.9379 187.552 59.2809 187.275 58.521C186.998 57.7611 186.859 56.9299 186.859 56.0275V55.5288C186.859 54.4839 187.014 53.5538 187.322 52.7384C187.631 51.9152 188.051 51.2186 188.581 50.6487C189.111 50.0787 189.713 49.6473 190.386 49.3544C191.059 49.0615 191.755 48.9151 192.476 48.9151C193.394 48.9151 194.186 49.0734 194.85 49.39C195.523 49.7067 196.073 50.15 196.501 50.7199C196.928 51.2819 197.245 51.9469 197.451 52.7147C197.657 53.4746 197.76 54.3058 197.76 55.2082V56.1937H188.166V54.4008H195.563V54.2345C195.531 53.6646 195.412 53.1105 195.207 52.5722C195.009 52.0339 194.692 51.5906 194.257 51.2423C193.821 50.894 193.228 50.7199 192.476 50.7199C191.977 50.7199 191.518 50.8268 191.098 51.0405C190.679 51.2463 190.319 51.555 190.018 51.9666C189.717 52.3783 189.483 52.8809 189.317 53.4746C189.151 54.0683 189.068 54.753 189.068 55.5288V56.0275C189.068 56.637 189.151 57.2109 189.317 57.7492C189.491 58.2795 189.741 58.7466 190.065 59.1503C190.398 59.554 190.798 59.8706 191.265 60.1002C191.74 60.3298 192.278 60.4445 192.879 60.4445C193.655 60.4445 194.312 60.2862 194.85 59.9696C195.389 59.6529 195.86 59.2294 196.263 58.6991L197.593 59.7559C197.316 60.1754 196.964 60.5751 196.537 60.9551C196.109 61.3351 195.583 61.6438 194.957 61.8813C194.34 62.1187 193.608 62.2375 192.761 62.2375ZM207.484 44.7118L211.972 53.3915L216.473 44.7118H219.073L213.112 55.5407V62H210.821V55.5407L204.86 44.7118H207.484ZM219.595 55.7188V55.4457C219.595 54.5195 219.73 53.6606 219.999 52.8691C220.268 52.0696 220.656 51.3769 221.163 50.7911C221.669 50.1975 222.283 49.7383 223.003 49.4138C223.724 49.0813 224.531 48.9151 225.425 48.9151C226.328 48.9151 227.139 49.0813 227.86 49.4138C228.588 49.7383 229.205 50.1975 229.712 50.7911C230.226 51.3769 230.618 52.0696 230.887 52.8691C231.157 53.6606 231.291 54.5195 231.291 55.4457V55.7188C231.291 56.6449 231.157 57.5038 230.887 58.2954C230.618 59.087 230.226 59.7796 229.712 60.3733C229.205 60.9591 228.592 61.4182 227.871 61.7507C227.159 62.0752 226.352 62.2375 225.449 62.2375C224.547 62.2375 223.735 62.0752 223.015 61.7507C222.295 61.4182 221.677 60.9591 221.163 60.3733C220.656 59.7796 220.268 59.087 219.999 58.2954C219.73 57.5038 219.595 56.6449 219.595 55.7188ZM221.792 55.4457V55.7188C221.792 56.3599 221.867 56.9655 222.018 57.5355C222.168 58.0975 222.394 58.5962 222.694 59.0316C223.003 59.4669 223.387 59.8113 223.846 60.0646C224.305 60.31 224.84 60.4327 225.449 60.4327C226.051 60.4327 226.577 60.31 227.028 60.0646C227.488 59.8113 227.868 59.4669 228.168 59.0316C228.469 58.5962 228.695 58.0975 228.845 57.5355C229.003 56.9655 229.083 56.3599 229.083 55.7188V55.4457C229.083 54.8124 229.003 54.2148 228.845 53.6527C228.695 53.0828 228.465 52.5801 228.156 52.1448C227.856 51.7015 227.476 51.3532 227.017 51.0999C226.565 50.8466 226.035 50.7199 225.425 50.7199C224.824 50.7199 224.293 50.8466 223.834 51.0999C223.383 51.3532 223.003 51.7015 222.694 52.1448C222.394 52.5801 222.168 53.0828 222.018 53.6527C221.867 54.2148 221.792 54.8124 221.792 55.4457ZM241.906 59.0316V49.1526H244.115V62H242.013L241.906 59.0316ZM242.322 56.3243L243.236 56.3006C243.236 57.1555 243.145 57.9471 242.963 58.6753C242.789 59.3957 242.504 60.021 242.108 60.5514C241.712 61.0818 241.194 61.4973 240.553 61.7981C239.912 62.091 239.132 62.2375 238.214 62.2375C237.588 62.2375 237.014 62.1464 236.492 61.9644C235.977 61.7823 235.534 61.5013 235.162 61.1213C234.79 60.7414 234.501 60.2466 234.295 59.6371C234.097 59.0276 233.998 58.2954 233.998 57.4405V49.1526H236.195V57.4642C236.195 58.0421 236.258 58.521 236.385 58.9009C236.52 59.273 236.698 59.5698 236.919 59.7915C237.149 60.0052 237.402 60.1556 237.679 60.2427C237.964 60.3298 238.257 60.3733 238.558 60.3733C239.492 60.3733 240.232 60.1952 240.778 59.839C241.324 59.4748 241.716 58.988 241.954 58.3785C242.199 57.7611 242.322 57.0763 242.322 56.3243ZM249.66 51.1711V62H247.463V49.1526H249.601L249.66 51.1711ZM253.673 49.0813L253.661 51.1236C253.479 51.084 253.305 51.0603 253.139 51.0524C252.981 51.0365 252.799 51.0286 252.593 51.0286C252.086 51.0286 251.639 51.1078 251.251 51.2661C250.863 51.4244 250.535 51.6461 250.265 51.931C249.996 52.216 249.783 52.5564 249.624 52.9522C249.474 53.34 249.375 53.7675 249.327 54.2345L248.71 54.5908C248.71 53.815 248.785 53.0867 248.936 52.406C249.094 51.7252 249.335 51.1236 249.66 50.6012C249.984 50.0708 250.396 49.6592 250.895 49.3663C251.401 49.0655 252.003 48.9151 252.7 48.9151C252.858 48.9151 253.04 48.9349 253.246 48.9745C253.452 49.0061 253.594 49.0417 253.673 49.0813ZM271.282 57.6304C271.282 57.2267 271.219 56.8705 271.092 56.5618C270.973 56.2452 270.76 55.9602 270.451 55.7069C270.15 55.4536 269.731 55.2121 269.192 54.9826C268.662 54.753 267.989 54.5195 267.174 54.282C266.319 54.0287 265.547 53.7477 264.858 53.439C264.17 53.1224 263.58 52.7622 263.089 52.3585C262.598 51.9548 262.222 51.4917 261.961 50.9692C261.7 50.4468 261.569 49.8492 261.569 49.1763C261.569 48.5035 261.708 47.8821 261.985 47.3121C262.262 46.7422 262.658 46.2474 263.172 45.8279C263.695 45.4004 264.316 45.068 265.036 44.8305C265.757 44.593 266.56 44.4743 267.447 44.4743C268.745 44.4743 269.845 44.7236 270.748 45.2223C271.658 45.7131 272.351 46.3583 272.826 47.1578C273.301 47.9493 273.538 48.7963 273.538 49.6988H271.258C271.258 49.0497 271.12 48.4758 270.843 47.9771C270.566 47.4704 270.146 47.0746 269.584 46.7897C269.022 46.4968 268.31 46.3503 267.447 46.3503C266.631 46.3503 265.959 46.473 265.428 46.7184C264.898 46.9638 264.502 47.2963 264.241 47.7158C263.988 48.1354 263.861 48.6143 263.861 49.1526C263.861 49.5167 263.936 49.8492 264.087 50.15C264.245 50.4428 264.486 50.7159 264.811 50.9692C265.143 51.2226 265.563 51.4561 266.069 51.6698C266.584 51.8835 267.197 52.0893 267.91 52.2872C268.891 52.5643 269.738 52.873 270.451 53.2134C271.163 53.5538 271.749 53.9377 272.208 54.3652C272.675 54.7847 273.02 55.2636 273.241 55.8019C273.471 56.3322 273.586 56.9338 273.586 57.6067C273.586 58.3112 273.443 58.9484 273.158 59.5184C272.873 60.0883 272.465 60.5751 271.935 60.9789C271.405 61.3826 270.768 61.6952 270.023 61.9169C269.287 62.1306 268.464 62.2375 267.554 62.2375C266.754 62.2375 265.967 62.1267 265.191 61.905C264.423 61.6834 263.722 61.3509 263.089 60.9076C262.464 60.4643 261.961 59.9181 261.581 59.269C261.209 58.612 261.023 57.8521 261.023 56.9893H263.303C263.303 57.5829 263.418 58.0935 263.647 58.521C263.877 58.9405 264.189 59.2888 264.585 59.5659C264.989 59.8429 265.444 60.0487 265.951 60.1833C266.465 60.31 267 60.3733 267.554 60.3733C268.353 60.3733 269.03 60.2625 269.584 60.0408C270.138 59.8192 270.558 59.5025 270.843 59.0909C271.136 58.6793 271.282 58.1925 271.282 57.6304ZM275.592 55.7188V55.4457C275.592 54.5195 275.727 53.6606 275.996 52.8691C276.265 52.0696 276.653 51.3769 277.16 50.7911C277.666 50.1975 278.28 49.7383 279 49.4138C279.72 49.0813 280.528 48.9151 281.422 48.9151C282.325 48.9151 283.136 49.0813 283.856 49.4138C284.585 49.7383 285.202 50.1975 285.709 50.7911C286.223 51.3769 286.615 52.0696 286.884 52.8691C287.153 53.6606 287.288 54.5195 287.288 55.4457V55.7188C287.288 56.6449 287.153 57.5038 286.884 58.2954C286.615 59.087 286.223 59.7796 285.709 60.3733C285.202 60.9591 284.589 61.4182 283.868 61.7507C283.156 62.0752 282.348 62.2375 281.446 62.2375C280.544 62.2375 279.732 62.0752 279.012 61.7507C278.292 61.4182 277.674 60.9591 277.16 60.3733C276.653 59.7796 276.265 59.087 275.996 58.2954C275.727 57.5038 275.592 56.6449 275.592 55.7188ZM277.789 55.4457V55.7188C277.789 56.3599 277.864 56.9655 278.014 57.5355C278.165 58.0975 278.39 58.5962 278.691 59.0316C279 59.4669 279.384 59.8113 279.843 60.0646C280.302 60.31 280.836 60.4327 281.446 60.4327C282.048 60.4327 282.574 60.31 283.025 60.0646C283.484 59.8113 283.864 59.4669 284.165 59.0316C284.466 58.5962 284.692 58.0975 284.842 57.5355C285 56.9655 285.079 56.3599 285.079 55.7188V55.4457C285.079 54.8124 285 54.2148 284.842 53.6527C284.692 53.0828 284.462 52.5801 284.153 52.1448C283.852 51.7015 283.472 51.3532 283.013 51.0999C282.562 50.8466 282.032 50.7199 281.422 50.7199C280.821 50.7199 280.29 50.8466 279.831 51.0999C279.38 51.3532 279 51.7015 278.691 52.1448C278.39 52.5801 278.165 53.0828 278.014 53.6527C277.864 54.2148 277.789 54.8124 277.789 55.4457ZM292.429 43.7619V62H290.221V43.7619H292.429ZM303.816 59.0316V49.1526H306.025V62H303.923L303.816 59.0316ZM304.232 56.3243L305.146 56.3006C305.146 57.1555 305.055 57.9471 304.873 58.6753C304.699 59.3957 304.414 60.021 304.018 60.5514C303.622 61.0818 303.104 61.4973 302.463 61.7981C301.821 62.091 301.042 62.2375 300.123 62.2375C299.498 62.2375 298.924 62.1464 298.402 61.9644C297.887 61.7823 297.444 61.5013 297.072 61.1213C296.7 60.7414 296.411 60.2466 296.205 59.6371C296.007 59.0276 295.908 58.2954 295.908 57.4405V49.1526H298.105V57.4642C298.105 58.0421 298.168 58.521 298.295 58.9009C298.429 59.273 298.608 59.5698 298.829 59.7915C299.059 60.0052 299.312 60.1556 299.589 60.2427C299.874 60.3298 300.167 60.3733 300.468 60.3733C301.402 60.3733 302.142 60.1952 302.688 59.839C303.234 59.4748 303.626 58.988 303.864 58.3785C304.109 57.7611 304.232 57.0763 304.232 56.3243ZM314.752 49.1526V50.8386H307.806V49.1526H314.752ZM310.157 46.0297H312.354V58.8178C312.354 59.2532 312.421 59.5817 312.555 59.8033C312.69 60.025 312.864 60.1714 313.078 60.2427C313.292 60.3139 313.521 60.3495 313.766 60.3495C313.949 60.3495 314.139 60.3337 314.336 60.302C314.542 60.2625 314.697 60.2308 314.8 60.2071L314.811 62C314.637 62.0554 314.408 62.1069 314.123 62.1544C313.846 62.2098 313.509 62.2375 313.113 62.2375C312.575 62.2375 312.08 62.1306 311.629 61.9169C311.178 61.7032 310.818 61.3469 310.549 60.8482C310.287 60.3416 310.157 59.6609 310.157 58.8059V46.0297ZM319.715 49.1526V62H317.507V49.1526H319.715ZM317.34 45.7448C317.34 45.3886 317.447 45.0878 317.661 44.8424C317.883 44.597 318.207 44.4743 318.635 44.4743C319.054 44.4743 319.375 44.597 319.597 44.8424C319.826 45.0878 319.941 45.3886 319.941 45.7448C319.941 46.0852 319.826 46.378 319.597 46.6234C319.375 46.8609 319.054 46.9797 318.635 46.9797C318.207 46.9797 317.883 46.8609 317.661 46.6234C317.447 46.378 317.34 46.0852 317.34 45.7448ZM322.66 55.7188V55.4457C322.66 54.5195 322.795 53.6606 323.064 52.8691C323.333 52.0696 323.721 51.3769 324.227 50.7911C324.734 50.1975 325.347 49.7383 326.068 49.4138C326.788 49.0813 327.595 48.9151 328.49 48.9151C329.392 48.9151 330.204 49.0813 330.924 49.4138C331.652 49.7383 332.27 50.1975 332.776 50.7911C333.291 51.3769 333.683 52.0696 333.952 52.8691C334.221 53.6606 334.356 54.5195 334.356 55.4457V55.7188C334.356 56.6449 334.221 57.5038 333.952 58.2954C333.683 59.087 333.291 59.7796 332.776 60.3733C332.27 60.9591 331.656 61.4182 330.936 61.7507C330.224 62.0752 329.416 62.2375 328.514 62.2375C327.611 62.2375 326.8 62.0752 326.08 61.7507C325.359 61.4182 324.742 60.9591 324.227 60.3733C323.721 59.7796 323.333 59.087 323.064 58.2954C322.795 57.5038 322.66 56.6449 322.66 55.7188ZM324.857 55.4457V55.7188C324.857 56.3599 324.932 56.9655 325.082 57.5355C325.233 58.0975 325.458 58.5962 325.759 59.0316C326.068 59.4669 326.452 59.8113 326.911 60.0646C327.37 60.31 327.904 60.4327 328.514 60.4327C329.115 60.4327 329.642 60.31 330.093 60.0646C330.552 59.8113 330.932 59.4669 331.233 59.0316C331.534 58.5962 331.759 58.0975 331.91 57.5355C332.068 56.9655 332.147 56.3599 332.147 55.7188V55.4457C332.147 54.8124 332.068 54.2148 331.91 53.6527C331.759 53.0828 331.53 52.5801 331.221 52.1448C330.92 51.7015 330.54 51.3532 330.081 51.0999C329.63 50.8466 329.1 50.7199 328.49 50.7199C327.888 50.7199 327.358 50.8466 326.899 51.0999C326.448 51.3532 326.068 51.7015 325.759 52.1448C325.458 52.5801 325.233 53.0828 325.082 53.6527C324.932 54.2148 324.857 54.8124 324.857 55.4457ZM339.307 51.8954V62H337.11V49.1526H339.188L339.307 51.8954ZM338.785 55.0895L337.87 55.0538C337.878 54.1752 338.009 53.3638 338.262 52.6197C338.515 51.8677 338.872 51.2146 339.331 50.6605C339.79 50.1064 340.336 49.679 340.969 49.3782C341.611 49.0694 342.319 48.9151 343.095 48.9151C343.728 48.9151 344.298 49.0022 344.805 49.1763C345.311 49.3425 345.743 49.6117 346.099 49.9837C346.463 50.3558 346.74 50.8386 346.93 51.4323C347.12 52.0181 347.215 52.7345 347.215 53.5815V62H345.006V53.5577C345.006 52.8849 344.907 52.3466 344.71 51.9429C344.512 51.5313 344.223 51.2344 343.843 51.0524C343.463 50.8624 342.996 50.7674 342.442 50.7674C341.896 50.7674 341.397 50.8822 340.946 51.1117C340.502 51.3413 340.118 51.6579 339.794 52.0616C339.477 52.4653 339.228 52.9284 339.046 53.4509C338.872 53.9654 338.785 54.5116 338.785 55.0895Z" fill="#00856F"/>
<defs>
<filter id="filter0_d_9_1703" x="0" y="0" width="819" height="115" filterUnits="userSpaceOnUse" color-interpolation-filters="sRGB">
<feFlood flood-opacity="0" result="BackgroundImageFix"/>
<feColorMatrix in="SourceAlpha" type="matrix" values="0 0 0 0 0 0 0 0 0 0 0 0 0 0 0 0 0 0 127 0" result="hardAlpha"/>
<feOffset dy="4"/>
<feGaussianBlur stdDeviation="4.5"/>
<feComposite in2="hardAlpha" operator="out"/>
<feColorMatrix type="matrix" values="0 0 0 0 0 0 0 0 0 0 0 0 0 0 0 0 0 0 0.34 0"/>
<feBlend mode="normal" in2="BackgroundImageFix" result="effect1_dropShadow_9_1703"/>
<feBlend mode="normal" in="SourceGraphic" in2="effect1_dropShadow_9_1703" result="shape"/>
</filter>
</defs>
</svg>
