<svg width="35" height="32" viewBox="0 0 35 32" fill="none" xmlns="http://www.w3.org/2000/svg">
<path d="M5.55859 22.7893V29.6492V22.7893ZM7.27356 2.20972V9.06958V2.20972ZM8.98852 26.2192H2.12866H8.98852ZM10.7035 5.63965H3.84363H10.7035ZM19.2783 2.20972L22.2843 9.83166C22.6066 10.6488 22.7678 11.0573 23.0145 11.4018C23.2332 11.7072 23.5006 11.9746 23.806 12.1933C24.1504 12.44 24.559 12.6012 25.376 12.9235L32.998 15.9294L25.376 18.9354C24.559 19.2577 24.1504 19.4189 23.806 19.6657C23.5006 19.8843 23.2332 20.1517 23.0145 20.4571C22.7678 20.8015 22.6066 21.2102 22.2843 22.0272L19.2783 29.6492L16.2723 22.0272C15.9501 21.2102 15.7889 20.8015 15.5421 20.4571C15.3234 20.1517 15.0561 19.8843 14.7506 19.6657C14.4063 19.4189 13.9976 19.2577 13.1805 18.9354L5.55859 15.9294L13.1805 12.9235C13.9976 12.6012 14.4063 12.44 14.7506 12.1933C15.0561 11.9746 15.3234 11.7072 15.5421 11.4018C15.7889 11.0573 15.9501 10.6488 16.2723 9.83166L19.2783 2.20972Z" fill="#00856F"/>
<path d="M5.55859 22.7893V29.6492M7.27356 2.20972V9.06958M8.98852 26.2192H2.12866M10.7035 5.63965H3.84363M19.2783 2.20972L22.2843 9.83166C22.6066 10.6488 22.7678 11.0573 23.0145 11.4018C23.2332 11.7072 23.5006 11.9746 23.806 12.1933C24.1504 12.44 24.559 12.6012 25.376 12.9235L32.998 15.9294L25.376 18.9354C24.559 19.2577 24.1504 19.4189 23.806 19.6657C23.5006 19.8843 23.2332 20.1517 23.0145 20.4571C22.7678 20.8015 22.6066 21.2102 22.2843 22.0272L19.2783 29.6492L16.2723 22.0272C15.9501 21.2102 15.7889 20.8015 15.5421 20.4571C15.3234 20.1517 15.0561 19.8843 14.7506 19.6657C14.4063 19.4189 13.9976 19.2577 13.1805 18.9354L5.55859 15.9294L13.1805 12.9235C13.9976 12.6012 14.4063 12.44 14.7506 12.1933C15.0561 11.9746 15.3234 11.7072 15.5421 11.4018C15.7889 11.0573 15.9501 10.6488 16.2723 9.83166L19.2783 2.20972Z" stroke="#00856F" stroke-width="3.42993" stroke-linecap="round" stroke-linejoin="round"/>
</svg>
